<svg width="32" height="32" viewBox="0 0 32 32" fill="none" xmlns="http://www.w3.org/2000/svg">
<g id="Frame">
<path id="Vector" d="M15.4765 3.12186C15.622 2.99541 15.8083 2.92578 16.0011 2.92578C16.1939 2.92578 16.3803 2.99541 16.5258 3.12186L19.1231 5.37786C19.204 5.44819 19.2982 5.50155 19.4002 5.53476C19.5021 5.56797 19.6097 5.58036 19.7165 5.57119L23.1458 5.27252C23.3378 5.25603 23.5293 5.3094 23.6851 5.42282C23.8409 5.53624 23.9505 5.70208 23.9938 5.88986L24.7698 9.24186C24.7938 9.34661 24.8386 9.44546 24.9016 9.53251C24.9646 9.61956 25.0445 9.69302 25.1365 9.74852L28.0858 11.5219C28.2508 11.6212 28.3745 11.7768 28.434 11.96C28.4935 12.1433 28.4849 12.3418 28.4098 12.5192L27.0658 15.6872C27.024 15.7859 27.0025 15.892 27.0025 15.9992C27.0025 16.1064 27.024 16.2125 27.0658 16.3112L28.4098 19.4792C28.4853 19.6567 28.4941 19.8556 28.4345 20.0391C28.375 20.2226 28.2512 20.3784 28.0858 20.4779L25.1365 22.2512C25.0446 22.3065 24.9648 22.3798 24.9018 22.4666C24.8388 22.5534 24.7939 22.652 24.7698 22.7565L23.9938 26.1085C23.9505 26.2963 23.8409 26.4621 23.6851 26.5756C23.5293 26.689 23.3378 26.7423 23.1458 26.7259L19.7165 26.4272C19.6098 26.4178 19.5022 26.43 19.4003 26.463C19.2984 26.496 19.2041 26.5491 19.1231 26.6192L16.5245 28.8765C16.3789 29.003 16.1926 29.0726 15.9998 29.0726C15.807 29.0726 15.6207 29.003 15.4751 28.8765L12.8778 26.6192C12.7968 26.5491 12.7025 26.496 12.6006 26.463C12.4987 26.43 12.3912 26.4178 12.2845 26.4272L8.85513 26.7259C8.66314 26.7423 8.47164 26.689 8.31584 26.5756C8.16005 26.4621 8.05043 26.2963 8.00713 26.1085L7.23113 22.7565C7.20718 22.6518 7.16236 22.5529 7.09936 22.4659C7.03637 22.3788 6.95648 22.3054 6.86447 22.2499L3.91513 20.4765C3.7501 20.3772 3.62646 20.2216 3.56694 20.0383C3.50742 19.8551 3.51601 19.6566 3.59113 19.4792L4.93513 16.3112C4.97694 16.2125 4.99848 16.1064 4.99848 15.9992C4.99848 15.892 4.97694 15.7859 4.93513 15.6872L3.59113 12.5192C3.51564 12.3416 3.50685 12.1428 3.56639 11.9593C3.62593 11.7758 3.74978 11.6199 3.91513 11.5205L6.86447 9.74719C6.95634 9.69184 7.03614 9.61858 7.09913 9.53177C7.16212 9.44496 7.20701 9.34637 7.23113 9.24186L8.00713 5.88986C8.05043 5.70208 8.16005 5.53624 8.31584 5.42282C8.47164 5.3094 8.66314 5.25603 8.85513 5.27252L12.2845 5.57119C12.3913 5.58036 12.4988 5.56797 12.6008 5.53476C12.7027 5.50155 12.7969 5.44819 12.8778 5.37786L15.4765 3.12186Z" stroke="#0064D8" stroke-width="2"/>
<path id="Vector_2" d="M12 17L14.6667 19.6667L21.3333 13" stroke="#0064D8" stroke-width="2" stroke-linecap="round" stroke-linejoin="round"/>
</g>
</svg>
