<svg width="32" height="32" viewBox="0 0 32 32" fill="none" xmlns="http://www.w3.org/2000/svg">
<g id="Frame">
<path id="Vector" d="M14.6667 25.3333V28M14.6667 16V21.3333M21.3333 16V21.3333H18.6667M28 16H10.6667M6.66667 16H4M4 6.66667L16 4L28 6.66667" stroke="#0064D8" stroke-width="2" stroke-linecap="round" stroke-linejoin="round"/>
<path id="Vector_2" d="M28 11.466V27.1993C28 27.4115 27.9157 27.615 27.7657 27.765C27.6157 27.9151 27.4122 27.9993 27.2 27.9993H4.8C4.58783 27.9993 4.38434 27.9151 4.23431 27.765C4.08429 27.615 4 27.4115 4 27.1993V11.466C4 11.2538 4.08429 11.0504 4.23431 10.9003C4.38434 10.7503 4.58783 10.666 4.8 10.666H27.2C27.4122 10.666 27.6157 10.7503 27.7657 10.9003C27.9157 11.0504 28 11.2538 28 11.466Z" stroke="#0064D8" stroke-width="2" stroke-linecap="round" stroke-linejoin="round"/>
</g>
</svg>
