<svg width="32" height="32" viewBox="0 0 32 32" fill="none" xmlns="http://www.w3.org/2000/svg">
<g id="Frame">
<path id="Vector" d="M21.963 26.666H5.46699C5.25482 26.666 5.05134 26.5817 4.90131 26.4317C4.75128 26.2817 4.66699 26.0782 4.66699 25.866V12.7994C4.66699 12.5872 4.75128 12.3837 4.90131 12.2337C5.05134 12.0836 5.25482 11.9994 5.46699 11.9994H9.15766C9.61816 11.9994 10.0708 11.8801 10.4715 11.6532C10.8723 11.4264 11.2074 11.0996 11.4443 10.7047L15.0577 4.68202C15.3302 4.22716 15.7595 3.88754 16.2649 3.72703C16.7702 3.56652 17.3168 3.59618 17.8019 3.81044C18.2869 4.0247 18.6769 4.40879 18.8986 4.89048C19.1203 5.37216 19.1584 5.91825 19.0057 6.42602L17.643 10.97C17.6073 11.0894 17.5999 11.2154 17.6215 11.3381C17.6431 11.4608 17.6931 11.5767 17.7674 11.6767C17.8418 11.7767 17.9384 11.8579 18.0497 11.9139C18.1609 11.9699 18.2838 11.9992 18.4083 11.9994H24.5083C24.9184 11.9993 25.3229 12.0938 25.6905 12.2755C26.0581 12.4572 26.3789 12.7212 26.6278 13.047C26.8768 13.3729 27.0472 13.7517 27.1259 14.1541C27.2047 14.5566 27.1895 14.9717 27.0817 15.3674L24.535 24.7007C24.3812 25.2648 24.0463 25.7627 23.5818 26.1178C23.1173 26.4729 22.5477 26.6656 21.963 26.666Z" stroke="#0064D8" stroke-width="2" stroke-linecap="round"/>
<path id="Vector_2" d="M9.33301 26.6667V12" stroke="#0064D8" stroke-width="2" stroke-linecap="round" stroke-linejoin="round"/>
</g>
</svg>
